<?xml version="1.0" encoding="UTF-8"?>
<svg version="1.1" xmlns="http://www.w3.org/2000/svg" width="500" height="500">
<path d="M0 0 C5.1654329 0.49194599 8.67877292 1.59786455 13.125 4.25 C13.7142627 4.59861084 14.30352539 4.94722168 14.91064453 5.30639648 C16.95026818 6.52201634 18.97594661 7.75863574 21 9 C21.76119141 9.46486816 22.52238281 9.92973633 23.30664062 10.40869141 C29.56044935 14.2361934 35.78224622 18.11429153 42 22 C44.13410663 23.33204399 46.26822142 24.66407492 48.40234375 25.99609375 C53.34392895 29.08188225 58.28368169 32.17058339 63.22192383 35.26171875 C65.79442185 36.98759505 65.79442185 36.98759505 67.98747492 37.78857869 C70.48876826 38.93656117 72.11731753 39.97705269 74 42 C75.22531598 46.47674298 75.04424999 50.89299763 74.96203613 55.50898743 C74.96552503 56.91574744 74.97253026 58.3225024 74.98274946 59.72922963 C75.00064977 63.59513353 74.96862831 67.45926646 74.92852497 71.32494462 C74.89400129 75.49326599 74.90566646 79.66148617 74.91174316 83.82991028 C74.9159396 91.05193594 74.89082408 98.27338375 74.84584045 105.49526405 C74.78084451 115.9368077 74.7599911 126.37807173 74.74993652 136.81979575 C74.73242415 153.76031198 74.67917586 170.70052018 74.60351562 187.64086914 C74.53009193 204.09755918 74.47346046 220.55416558 74.43945312 237.01098633 C74.43735134 238.02525121 74.43524955 239.03951609 74.43308407 240.08451626 C74.42264383 245.17274679 74.41253415 250.26097791 74.40258884 255.34920943 C74.3196447 297.56635392 74.17873057 339.78315934 74 382 C72.63970924 382.72141174 72.63970924 382.72141174 71.25193787 383.45739746 C67.82889998 385.27298348 64.40632282 387.08943657 60.98387146 388.90612793 C59.51351413 389.68646853 58.04303839 390.46658605 56.57243347 391.24645996 C47.70786303 395.9476347 38.86263432 400.67898942 30.0625 405.5 C28.33730202 406.44282258 26.61205062 407.38554744 24.88671875 408.328125 C22.42132928 409.6752895 19.95672772 411.02378247 17.49462891 412.37695312 C15.12574896 413.67612185 12.75123966 414.96435464 10.375 416.25 C9.68156494 416.63349609 8.98812988 417.01699219 8.27368164 417.41210938 C4.82863363 419.2628949 3.00303324 420 -1 420 C-0.99907821 419.37886983 -0.99815641 418.75773966 -0.99720669 418.11778736 C-0.97471796 402.71064707 -0.95838422 387.30351211 -0.94818783 371.89635944 C-0.94312072 364.44432786 -0.93624401 356.99230759 -0.92456055 349.5402832 C-0.91127563 340.89795005 -0.90312866 332.25562502 -0.90234375 323.61328125 C-0.90224721 322.5503327 -0.90224721 322.5503327 -0.90214872 321.46591043 C-0.90365764 293.30189709 -1.32382148 265.15645541 -2 237 C-20.65271058 247.16781284 -39.24824711 257.36100111 -57.39355469 268.41503906 C-76.7694343 280.19737425 -96.2968916 291.71918144 -115.96875 303 C-117.1433276 303.67444947 -118.31788826 304.34892845 -119.49243164 305.0234375 C-121.72168974 306.30244491 -123.95254507 307.57867412 -126.18530273 308.8515625 C-137.45547197 314.20445598 -137.45547197 314.20445598 -145 323 C-145.22560676 325.39254576 -145.40848595 327.78928123 -145.5625 330.1875 C-145.64628906 331.45980469 -145.73007813 332.73210937 -145.81640625 334.04296875 C-145.87699219 335.01878906 -145.93757812 335.99460937 -146 337 C-133.72828622 330.45968952 -121.54383707 323.81058617 -109.5625 316.75 C-102.57726564 312.64210458 -95.5812684 308.57721796 -88.4375 304.75 C-87.77758057 304.39131836 -87.11766113 304.03263672 -86.43774414 303.66308594 C-80.45554853 300.50760793 -74.8085323 298.45385546 -68 299 C-64.92944336 300.36767578 -64.92944336 300.36767578 -61.65234375 302.3203125 C-60.75212746 302.85399948 -60.75212746 302.85399948 -59.83372498 303.39846802 C-52.24039963 307.95925481 -44.90252026 312.92152858 -37.5625 317.875 C-35.46616176 319.2826284 -33.36893516 320.68892518 -31.27157593 322.09503174 C-29.89364935 323.02052262 -28.51718209 323.94819024 -27.14224243 324.87811279 C-23.67376631 327.22204372 -20.18863947 329.53019793 -16.65966797 331.78222656 C-15.96526108 332.23018585 -15.27085419 332.67814514 -14.55540466 333.13967896 C-13.23596259 333.9891149 -11.91056641 334.82939607 -10.57850647 335.65890503 C-6.20105701 338.49408672 -6.20105701 338.49408672 -5.09204102 341.28466797 C-5.06166748 341.85072754 -5.03129395 342.41678711 -5 343 C-15.73552557 349.4088282 -26.581958 355.5969306 -37.50048828 361.68847656 C-44.12332907 365.38499218 -50.73037654 369.10645193 -57.3125 372.875 C-58.1478125 373.35324219 -58.983125 373.83148438 -59.84375 374.32421875 C-62.56290345 375.88210968 -65.28147369 377.44101498 -68 379 C-72.58231646 381.62677914 -77.16547084 384.25208512 -81.75 386.875 C-82.34214294 387.21380188 -82.93428589 387.55260376 -83.54437256 387.90167236 C-93.0040814 393.31167756 -102.49645236 398.66091278 -112.01586914 403.96533203 C-117.03599717 406.76592863 -122.04016618 409.58941851 -127.015625 412.46875 C-127.97218994 413.02143555 -128.92875488 413.57412109 -129.91430664 414.14355469 C-131.70534964 415.18106353 -133.49379875 416.22306911 -135.27905273 417.27050781 C-137.4990592 418.55597509 -139.74175365 419.78349607 -142 421 C-142.96035156 421.56074219 -143.92070312 422.12148438 -144.91015625 422.69921875 C-150.33094651 423.2269063 -154.28658572 419.87584084 -158.75 417.0625 C-160.90559331 415.75412581 -163.0618672 414.44687236 -165.21875 413.140625 C-166.89130859 412.11485352 -166.89130859 412.11485352 -168.59765625 411.06835938 C-174.09614295 407.72570874 -179.67146421 404.51916428 -185.25 401.3125 C-186.33539063 400.68601562 -187.42078125 400.05953125 -188.5390625 399.4140625 C-196.8341088 394.63691536 -205.19994683 390.00036841 -213.6015625 385.4140625 C-218.59710932 382.68316357 -223.53270943 379.85562778 -228.46484375 377.01171875 C-231.02350831 375.54473163 -233.60138633 374.1179028 -236.19140625 372.70703125 C-251.62249269 364.29099903 -266.6989417 355.56927494 -280 344 C-281.12435716 343.16579953 -282.24925074 342.33232088 -283.375 341.5 C-290.7206524 334.50414057 -292.93191136 325.22254465 -293.27402878 315.32760525 C-293.29506239 313.69517967 -293.30583869 312.06259835 -293.30780029 310.43003845 C-293.3165648 309.52129567 -293.32532931 308.61255289 -293.33435941 307.67627245 C-293.36086443 304.66039313 -293.37343066 301.64463023 -293.38574219 298.62866211 C-293.40156442 296.45462026 -293.41810354 294.28058352 -293.43530273 292.10655212 C-293.48746908 284.9968661 -293.51831181 277.88715799 -293.546875 270.77734375 C-293.55760215 268.3239853 -293.56835718 265.87062696 -293.57913971 263.41726875 C-293.62234032 253.21465941 -293.659817 243.01205609 -293.68238449 232.80937862 C-293.71490074 218.20892981 -293.78140918 203.60954181 -293.89518619 189.00949281 C-293.97257185 178.72813146 -294.01164705 168.4470541 -294.02222562 158.16540915 C-294.02952927 152.02959333 -294.05353494 145.89491258 -294.11843109 139.75941277 C-294.17857932 133.99113515 -294.19122398 128.2246801 -294.16766357 122.45615578 C-294.16722209 120.34257077 -294.18383523 118.2289012 -294.21897125 116.11560822 C-294.4694503 100.18060584 -294.4694503 100.18060584 -290.8549118 94.81677437 C-288.34375882 92.51242689 -285.91156879 90.75663206 -283 89 C-281.47860822 87.8512415 -279.96518524 86.69174339 -278.46484375 85.515625 C-276.95937121 84.42205185 -275.45016422 83.33360359 -273.9375 82.25 C-272.26856639 81.0377856 -270.60061709 79.82421504 -268.93359375 78.609375 C-268.10585449 78.00673828 -267.27811523 77.40410156 -266.42529297 76.78320312 C-262.74235747 74.07531498 -259.11981234 71.29140183 -255.5 68.5 C-248.66627826 63.23865324 -241.75068436 58.09808427 -234.78491211 53.01293945 C-230.44947468 49.84003304 -226.23046822 46.57936379 -222.0625 43.1875 C-212.1758362 35.51615779 -201.13693559 29.38572078 -190.38574219 23.01513672 C-187.37073091 21.22065279 -184.37395767 19.40026961 -181.3828125 17.56640625 C-173.22910244 12.61582616 -165.66780867 8.06521183 -156 7 C-155.00355469 6.86722656 -154.00710937 6.73445313 -152.98046875 6.59765625 C-129.27039764 4.93122708 -101.69228607 26.55800748 -82.26171875 38.07128906 C-78.7842739 40.12756259 -75.29968298 42.17124208 -71.8125 44.2109375 C-53.12855484 55.14072921 -34.46785998 66.10928771 -15.89538574 77.22772217 C-14.21619774 78.23282258 -12.53632732 79.23678262 -10.85644531 80.24072266 C-9.84549805 80.84706543 -8.83455078 81.4534082 -7.79296875 82.078125 C-6.43981567 82.88878418 -6.43981567 82.88878418 -5.05932617 83.71582031 C-3 85 -3 85 -2 86 C-1.98969254 85.01107758 -1.97938507 84.02215515 -1.96876526 83.00326538 C-1.87092909 73.67503928 -1.76818557 64.34687837 -1.66066074 55.01875877 C-1.60554084 50.22330334 -1.55213862 45.4278417 -1.50268555 40.63232422 C-1.45488037 36.00277175 -1.40253229 31.37329072 -1.34705925 26.74382401 C-1.32670871 24.97925221 -1.30798389 23.21466087 -1.29092598 21.45005417 C-1.26671965 18.97493193 -1.23668824 16.4999428 -1.20532227 14.02490234 C-1.1995668 13.29841492 -1.19381134 12.57192749 -1.18788147 11.82342529 C-1.12990433 7.7877513 -0.7724775 3.96166004 0 0 Z M-146 89 C-146 135.53 -146 182.06 -146 230 C-145.34 230.33 -144.68 230.66 -144 231 C-141.60607842 229.740997 -139.35066432 228.43152286 -137.0625 227 C-136.14114258 226.43732422 -136.14114258 226.43732422 -135.20117188 225.86328125 C-131.3293291 223.48728803 -127.50378994 221.04171429 -123.6796875 218.58984375 C-118.21794381 215.10902146 -112.66590002 211.80916465 -107.0625 208.5625 C-106.03672852 207.96687256 -105.01095703 207.37124512 -103.95410156 206.75756836 C-100.63801817 204.83498798 -97.31918551 202.91721907 -94 201 C-92.32429932 200.02933594 -92.32429932 200.02933594 -90.61474609 199.0390625 C-74.36659934 189.63627507 -57.96065568 180.60348211 -41.38085938 171.79931641 C-32.22214477 166.92498606 -23.09851189 161.98573253 -14 157 C-13.28215332 156.60780273 -12.56430664 156.21560547 -11.82470703 155.81152344 C-10.06432309 154.84408534 -8.31285092 153.86047437 -6.5625 152.875 C-5.67691406 152.37742188 -4.79132813 151.87984375 -3.87890625 151.3671875 C-1.69630401 150.05730707 -1.69630401 150.05730707 -1 147 C-0.91147181 145.11343185 -0.88237778 143.22384476 -0.88647461 141.33520508 C-0.88655014 140.17422806 -0.88662567 139.01325104 -0.88670349 137.8170929 C-0.89186478 136.56389755 -0.89702606 135.31070221 -0.90234375 134.01953125 C-0.9037587 132.73640549 -0.90517365 131.45327972 -0.90663147 130.13127136 C-0.91044595 126.72329759 -0.92026709 123.31536657 -0.93133545 119.90740967 C-0.94157257 116.42851337 -0.94613402 112.94961015 -0.95117188 109.47070312 C-0.96189033 102.64711788 -0.97895391 95.82356099 -1 89 C-1.90920448 89.6106002 -1.90920448 89.6106002 -2.83677673 90.23353577 C-3.63821609 90.77014328 -4.43965546 91.30675079 -5.26538086 91.85961914 C-6.05714218 92.39043594 -6.8489035 92.92125275 -7.66465759 93.46815491 C-10.89363624 95.58617198 -14.21414539 97.51636108 -17.5625 99.4375 C-24.73877627 103.60542007 -31.78655949 107.95901444 -38.8125 112.375 C-42.87352062 114.91903584 -46.93640073 117.46008548 -51 120 C-51.97163086 120.60859863 -52.94326172 121.21719727 -53.94433594 121.84423828 C-56.68479365 123.55410051 -59.43441988 125.24805762 -62.1875 126.9375 C-63.41593628 127.70876221 -63.41593628 127.70876221 -64.66918945 128.49560547 C-65.81327271 129.19194092 -65.81327271 129.19194092 -66.98046875 129.90234375 C-67.96889771 130.51323853 -67.96889771 130.51323853 -68.97729492 131.13647461 C-71.51223353 132.21868075 -73.26526723 132.28649325 -76 132 C-77.89916992 131.15234375 -77.89916992 131.15234375 -79.73046875 129.9375 C-80.4373584 129.47867432 -81.14424805 129.01984863 -81.87255859 128.54711914 C-82.63648926 128.03656982 -83.40041992 127.52602051 -84.1875 127 C-85.89075823 125.89273118 -87.59525449 124.78736515 -89.30078125 123.68359375 C-90.21682129 123.08788574 -91.13286133 122.49217773 -92.07666016 121.87841797 C-97.29325515 118.52644855 -102.5870991 115.30034039 -107.875 112.0625 C-110.08354269 110.7073724 -112.29187669 109.35190461 -114.5 107.99609375 C-115.58152344 107.33206543 -116.66304687 106.66803711 -117.77734375 105.98388672 C-120.9187153 104.05003936 -124.05436053 102.10730791 -127.1875 100.16015625 C-128.14930176 99.56259521 -129.11110352 98.96503418 -130.10205078 98.34936523 C-131.90338791 97.22919935 -133.70389238 96.10769293 -135.50341797 94.98461914 C-136.30408691 94.48696045 -137.10475586 93.98930176 -137.9296875 93.4765625 C-138.62304199 93.04424316 -139.31639648 92.61192383 -140.03076172 92.16650391 C-141.96865203 91.01856938 -143.98541865 90.00729067 -146 89 Z " fill="#F0EFEA" transform="translate(364,34)"/>
<path d="M0 0 C0 111.54 0 223.08 0 338 C-8.30907508 333.84546246 -16.47638741 329.75568607 -24.5 325.125 C-25.39509277 324.6096167 -26.29018555 324.0942334 -27.21240234 323.56323242 C-37.91095742 317.36229991 -48.21298069 311.0219519 -57.6640625 302.984375 C-59.02230493 301.83055032 -60.40364517 300.70113081 -61.8359375 299.640625 C-69.45958 293.99061583 -71.59462853 285.93624174 -73 277 C-73.26203498 273.80647616 -73.30395141 270.63329714 -73.30780029 267.43003845 C-73.3165648 266.52129567 -73.32532931 265.61255289 -73.33435941 264.67627245 C-73.36086443 261.66039313 -73.37343066 258.64463023 -73.38574219 255.62866211 C-73.40156442 253.45462026 -73.41810354 251.28058352 -73.43530273 249.10655212 C-73.48746908 241.9968661 -73.51831181 234.88715799 -73.546875 227.77734375 C-73.55760215 225.3239853 -73.56835718 222.87062696 -73.57913971 220.41726875 C-73.62234032 210.21465941 -73.659817 200.01205609 -73.68238449 189.80937862 C-73.71490074 175.20892981 -73.78140918 160.60954181 -73.89518619 146.00949281 C-73.97257185 135.72813146 -74.01164705 125.4470541 -74.02222562 115.16540915 C-74.02952927 109.02959333 -74.05353494 102.89491258 -74.11843109 96.75941277 C-74.17857932 90.99113515 -74.19122398 85.2246801 -74.16766357 79.45615578 C-74.16722209 77.34257077 -74.18383523 75.2289012 -74.21897125 73.11560822 C-74.4694503 57.18060584 -74.4694503 57.18060584 -70.8549118 51.81677437 C-68.34375882 49.51242689 -65.91156879 47.75663206 -63 46 C-61.47860822 44.8512415 -59.96518524 43.69174339 -58.46484375 42.515625 C-56.95937121 41.42205185 -55.45016422 40.33360359 -53.9375 39.25 C-52.26856639 38.0377856 -50.60061709 36.82421504 -48.93359375 35.609375 C-47.69198486 34.70541992 -47.69198486 34.70541992 -46.42529297 33.78320312 C-42.74235461 31.07531288 -39.11989132 28.29130328 -35.5 25.5 C-26.43720557 18.52614375 -17.24355307 11.73204804 -8 5 C-7.31583008 4.49984375 -6.63166016 3.9996875 -5.92675781 3.484375 C-1.11861394 0 -1.11861394 0 0 0 Z " fill="#041E42" transform="translate(144,77)"/>
<path d="M0 0 C7.16064809 1.16952469 13.13907177 3.62864148 19.625 6.8125 C20.62281494 7.29678467 21.62062988 7.78106934 22.64868164 8.2800293 C33.69917594 13.71991266 44.36091586 19.80362984 55 26 C57.00255029 27.16024924 59.00515498 28.3204046 61.0078125 29.48046875 C71.48295385 35.56193603 81.91836635 41.71066136 92.33984375 47.88354492 C97.67375415 51.04125422 103.01622329 54.18381046 108.3671875 57.3125 C109.00406998 57.68505417 109.64095245 58.05760834 110.2971344 58.44145203 C113.41862018 60.26724902 116.54096116 62.09155337 119.66479492 63.91333008 C123.11766263 65.92907234 126.55893519 67.9641714 130 70 C130.6064032 70.35302185 131.2128064 70.7060437 131.83758545 71.06976318 C133.64639996 72.12395684 135.44681114 73.19135734 137.24609375 74.26171875 C138.83248657 75.19504028 138.83248657 75.19504028 140.45092773 76.1472168 C142.98387836 77.98828205 143.9486139 79.09997009 145 82 C142.39796705 84.75758128 139.92763607 86.82524928 136.640625 88.70703125 C135.78452637 89.20340088 134.92842773 89.69977051 134.04638672 90.21118164 C133.1235791 90.7396167 132.20077148 91.26805176 131.25 91.8125 C123.03225889 96.58896797 114.91809241 101.4975344 106.875 106.5625 C102.91798927 109.04378114 98.95937803 111.52249831 95 114 C94.03562012 114.60424805 93.07124023 115.20849609 92.07763672 115.83105469 C89.32990665 117.5453983 86.5729307 119.24370381 83.8125 120.9375 C82.99313965 121.4519165 82.1737793 121.96633301 81.32958984 122.49633789 C80.56727051 122.96031982 79.80495117 123.42430176 79.01953125 123.90234375 C78.36057861 124.30960693 77.70162598 124.71687012 77.02270508 125.13647461 C74.48776647 126.21868075 72.73473277 126.28649325 70 126 C68.10083008 125.15234375 68.10083008 125.15234375 66.26953125 123.9375 C65.5626416 123.47867432 64.85575195 123.01984863 64.12744141 122.54711914 C63.36351074 122.03656982 62.59958008 121.52602051 61.8125 121 C60.10924177 119.89273118 58.40474551 118.78736515 56.69921875 117.68359375 C55.78317871 117.08788574 54.86713867 116.49217773 53.92333984 115.87841797 C48.70673444 112.52644186 43.41266774 109.30073851 38.125 106.0625 C35.91525429 104.70460655 33.70561851 103.34653419 31.49609375 101.98828125 C28.28887146 100.01846485 25.08104976 98.04965199 21.87158203 96.08349609 C18.97509639 94.30856262 16.08109977 92.52963298 13.1875 90.75 C11.89900146 89.96314819 11.89900146 89.96314819 10.58447266 89.16040039 C9.78702637 88.66918701 8.98958008 88.17797363 8.16796875 87.671875 C7.13579224 87.03910645 7.13579224 87.03910645 6.08276367 86.39355469 C5.05179565 85.70374512 5.05179565 85.70374512 4 85 C3.14407761 84.47176132 2.28815521 83.94352264 1.40629578 83.39927673 C-1.31732314 80.68360248 -1.58676572 79.21736784 -1.63320923 75.43652344 C-1.61680389 74.7044165 -1.60039856 73.97230957 -1.58349609 73.21801758 C-1.58583252 72.43875412 -1.58816895 71.65949066 -1.59057617 70.85661316 C-1.592189 68.28523391 -1.5581842 65.71565543 -1.5234375 63.14453125 C-1.51664854 61.35903063 -1.51192607 59.57352106 -1.50918579 57.78800964 C-1.49851152 54.04957014 -1.47181802 50.31172909 -1.43212891 46.57348633 C-1.38115123 41.77128705 -1.35610216 36.96943117 -1.34119225 32.16699696 C-1.32643466 27.59696035 -1.30118838 23.02700527 -1.2734375 18.45703125 C-1.26852673 17.57992807 -1.26361595 16.7028249 -1.25855637 15.79914284 C-1.24235171 13.33060339 -1.21895065 10.86225133 -1.19287109 8.39379883 C-1.18861115 7.6556192 -1.1843512 6.91743958 -1.17996216 6.15689087 C-1.11512014 1.11512014 -1.11512014 1.11512014 0 0 Z " fill="#041E42" transform="translate(218,41)"/>
<path d="M0 0 C0.90021629 0.53368698 0.90021629 0.53368698 1.81861877 1.07815552 C9.41194412 5.63894231 16.74982349 10.60121608 24.08984375 15.5546875 C26.18618199 16.9623159 28.28340859 18.36861268 30.38076782 19.77471924 C31.7586944 20.70021012 33.13516166 21.62787774 34.51010132 22.55780029 C37.97857744 24.90173122 41.46370428 27.20988543 44.99267578 29.46191406 C45.68708267 29.90987335 46.38148956 30.35783264 47.09693909 30.81936646 C48.41638116 31.6688024 49.74177734 32.50908357 51.07383728 33.33859253 C55.45128674 36.17377422 55.45128674 36.17377422 56.56030273 38.96435547 C56.59067627 39.53041504 56.6210498 40.09647461 56.65234375 40.6796875 C45.91681818 47.0885157 35.07038575 53.2766181 24.15185547 59.36816406 C17.52901468 63.06467968 10.92196721 66.78613943 4.33984375 70.5546875 C3.50453125 71.03292969 2.66921875 71.51117188 1.80859375 72.00390625 C-0.9105597 73.56179718 -3.62912994 75.12070248 -6.34765625 76.6796875 C-10.92997271 79.30646664 -15.51312709 81.93177262 -20.09765625 84.5546875 C-20.68979919 84.89348938 -21.28194214 85.23229126 -21.89202881 85.58135986 C-31.35031999 90.99055431 -40.84147366 96.33860492 -50.35913086 101.64282227 C-55.40331908 104.45717097 -60.43200977 107.29409433 -65.43359375 110.18359375 C-66.39918213 110.74079102 -67.36477051 111.29798828 -68.35961914 111.87207031 C-70.17641448 112.92309061 -71.99085843 113.97819011 -73.80249023 115.03808594 C-74.60759033 115.50375977 -75.41269043 115.96943359 -76.2421875 116.44921875 C-76.94190674 116.85760986 -77.64162598 117.26600098 -78.36254883 117.68676758 C-80.35093511 118.68132754 -82.17662717 119.23064536 -84.34765625 119.6796875 C-85.06838272 100.43475739 -85.48917491 81.18850973 -85.57983398 61.92993164 C-85.59171926 59.76241638 -85.60881252 57.59492345 -85.63110352 55.42749023 C-85.66088999 52.3655819 -85.671001 49.30422394 -85.67578125 46.2421875 C-85.68808777 45.31869507 -85.70039429 44.39520264 -85.71307373 43.44372559 C-85.71011292 42.59475708 -85.7071521 41.74578857 -85.70410156 40.87109375 C-85.70774719 40.13060791 -85.71139282 39.39012207 -85.71514893 38.62719727 C-85.23998 36.10906239 -84.31085945 35.27891079 -82.34765625 33.6796875 C-80.44643284 32.528756 -78.5099242 31.43547769 -76.5546875 30.37890625 C-75.98000732 30.06579498 -75.40532715 29.75268372 -74.81323242 29.43008423 C-73.57565727 28.7560241 -72.3368957 28.08413856 -71.09707642 27.41421509 C-67.80947703 25.63706014 -64.53113402 23.84306836 -61.25390625 22.046875 C-60.58937943 21.68280045 -59.9248526 21.31872589 -59.2401886 20.94361877 C-51.83671385 16.87246101 -44.55254149 12.60370434 -37.2902832 8.28588867 C-11.59696683 -6.909971 -11.59696683 -6.909971 0 0 Z " fill="#041E42" transform="translate(302.34765625,336.3203125)"/>
</svg>
